<svg width="32" height="32" viewBox="0 0 32 32" fill="none" xmlns="http://www.w3.org/2000/svg">
<path d="M12 11H4V9H12V11Z" fill="#1C1C1C"/>
<path d="M12 16H4V14H12V16Z" fill="#1C1C1C"/>
<path d="M8 21H4V19H8V21Z" fill="#1C1C1C"/>
<path d="M20 11H28V9H20V11Z" fill="#1C1C1C"/>
<path d="M20 16H28V14H20V16Z" fill="#1C1C1C"/>
<path d="M20 21H24V19H20V21Z" fill="#1C1C1C"/>
<path fill-rule="evenodd" clip-rule="evenodd" d="M13 4H0V27H13C14.1046 27 15 27.8954 15 29H17C17 27.8954 17.8954 27 19 27H32V4H19C17.8053 4 16.7329 4.52376 16 5.35418C15.2671 4.52376 14.1947 4 13 4ZM15 8C15 6.89543 14.1046 6 13 6H2V25H13C13.7286 25 14.4117 25.1948 15 25.5351V8ZM17 25.5351C17.5883 25.1948 18.2714 25 19 25H30V6H19C17.8954 6 17 6.89543 17 8V25.5351Z" fill="#1C1C1C"/>
</svg>
