<svg width="32" height="32" viewBox="0 0 32 32" fill="none" xmlns="http://www.w3.org/2000/svg">
<path fill-rule="evenodd" clip-rule="evenodd" d="M31.4144 8.00015L24.0002 0.585938L16.5859 8.00015L24.0002 15.4144L31.4144 8.00015ZM24.0002 12.5859L19.4144 8.00015L24.0002 3.41436L28.5859 8.00015L24.0002 12.5859Z" fill="#1C1C1C"/>
<path fill-rule="evenodd" clip-rule="evenodd" d="M15 1.00012H1V15.0001H15V1.00012ZM3 13.0001V3.00012H13V13.0001H3Z" fill="#1C1C1C"/>
<path fill-rule="evenodd" clip-rule="evenodd" d="M8.00015 16.5859L15.4144 24.0002L8.00015 31.4144L0.585938 24.0002L8.00015 16.5859ZM3.41436 24.0002L8.00015 28.5859L12.5859 24.0002L8.00015 19.4144L3.41436 24.0002Z" fill="#1C1C1C"/>
<path fill-rule="evenodd" clip-rule="evenodd" d="M31 17.0001H17V31.0001H31V17.0001ZM19 29.0001V19.0001H29V29.0001H19Z" fill="#1C1C1C"/>
</svg>
