<svg width="32" height="32" viewBox="0 0 32 32" fill="none" xmlns="http://www.w3.org/2000/svg">
<path d="M14.7841 16.9641C14.7308 17.2201 14.7041 17.5614 14.7041 17.9881V18.3721H16.3841L16.4321 18.0361C16.4854 17.7054 16.6028 17.4281 16.7841 17.2041C16.9654 16.9801 17.2748 16.6814 17.7121 16.3081C18.2134 15.8707 18.5974 15.5134 18.8641 15.2361C19.1308 14.9481 19.3441 14.6387 19.5041 14.3081C19.6641 13.9667 19.7441 13.5774 19.7441 13.1401C19.7441 12.5321 19.5894 12.0094 19.2801 11.5721C18.9708 11.1241 18.5388 10.7827 17.9841 10.5481C17.4401 10.3027 16.8268 10.1801 16.1441 10.1801C15.1201 10.1801 14.2561 10.4574 13.5521 11.0121C12.8481 11.5561 12.4161 12.3081 12.2561 13.2681H14.2561C14.3841 12.8627 14.6028 12.5321 14.9121 12.2761C15.2214 12.0094 15.6214 11.8761 16.1121 11.8761C16.6028 11.8761 16.9868 12.0041 17.2641 12.2601C17.5414 12.5054 17.6801 12.8254 17.6801 13.2201C17.6801 13.4761 17.6108 13.7267 17.4721 13.9721C17.3334 14.2067 17.1148 14.4467 16.8161 14.6921C16.5281 14.9374 16.3468 15.0921 16.2721 15.1561C15.7921 15.5614 15.4401 15.9027 15.2161 16.1801C14.9921 16.4467 14.8481 16.7081 14.7841 16.9641Z" fill="#1C1C1C"/>
<path d="M14.5121 21.8121H16.6401V19.6201H14.5121V21.8121Z" fill="#1C1C1C"/>
<path fill-rule="evenodd" clip-rule="evenodd" d="M31 16C31 7.71573 24.2843 1 16 1C7.71573 1 1 7.71573 1 16C1 24.2843 7.71573 31 16 31C24.2843 31 31 24.2843 31 16ZM3 16C3 8.8203 8.8203 3 16 3C23.1797 3 29 8.8203 29 16C29 23.1797 23.1797 29 16 29C8.8203 29 3 23.1797 3 16Z" fill="#1C1C1C"/>
</svg>
