<svg width="32" height="32" viewBox="0 0 32 32" fill="none" xmlns="http://www.w3.org/2000/svg">
<path d="M24.53 4.36171C22.1961 4.71282 19.1827 5.74292 16.4483 8.47726L11.4397 13.4859L9.55412 12.5431L14.0668 8.0304L11.9455 7.32329L5.04133 14.2274L9.28399 15.6417L7.70285 17.2228L1.33887 15.1015L11.4053 5.03504L15.6709 6.45692C18.5976 3.8069 21.7533 2.75693 24.2324 2.38396C25.5599 2.18426 26.6955 2.17796 27.5048 2.22242C27.9099 2.24468 28.2347 2.27975 28.4628 2.31012C28.5768 2.32532 28.6668 2.33936 28.7307 2.35008C28.7626 2.35544 28.788 2.35998 28.8067 2.36341L28.8295 2.36771L28.8371 2.36918L28.8411 2.36996L29.4958 2.5009L29.6265 3.15462L29.5001 2.49994L29.6267 3.15561L29.6275 3.15958L29.629 3.16714L29.6333 3.19001C29.6367 3.20865 29.6412 3.23407 29.6466 3.26601C29.6573 3.32987 29.6714 3.41985 29.6866 3.53391C29.7169 3.76193 29.752 4.08676 29.7743 4.49188C29.8187 5.30117 29.8124 6.43679 29.6127 7.76424C29.2397 10.2434 28.1898 13.399 25.5398 16.3258L26.9616 20.5914L16.8952 30.6578L14.7739 24.2939L16.355 22.7127L17.7692 26.9554L24.6734 20.0512L23.9663 17.9299L19.4536 22.4426L18.5108 20.557L23.5194 15.5483C26.2538 12.814 27.2839 9.8006 27.635 7.46671C27.8109 6.29719 27.8157 5.30044 27.7773 4.6016C27.7701 4.47177 27.7615 4.35243 27.7523 4.2444C27.6442 4.23516 27.5249 4.22654 27.3951 4.21941C26.6962 4.18101 25.6995 4.18576 24.53 4.36171Z" fill="#1C1C1C"/>
<path fill-rule="evenodd" clip-rule="evenodd" d="M19.4536 8.30049C20.6251 7.12891 22.5246 7.12891 23.6962 8.30049C24.8678 9.47206 24.8678 11.3716 23.6962 12.5431C22.5246 13.7147 20.6251 13.7147 19.4535 12.5431C18.282 11.3716 18.282 9.47206 19.4536 8.30049ZM22.282 9.7147C21.8915 9.32417 21.2583 9.32417 20.8678 9.7147C20.4772 10.1052 20.4772 10.7384 20.8678 11.1289C21.2583 11.5194 21.8915 11.5194 22.282 11.1289C22.6725 10.7384 22.6725 10.1052 22.282 9.7147Z" fill="#1C1C1C"/>
<path fill-rule="evenodd" clip-rule="evenodd" d="M7.15879 18.6331L13.3635 24.8379L8.6495 27.1949L4.80176 23.3472L7.15879 18.6331ZM7.70669 22.0095L7.23528 22.9523L9.0444 24.7614L9.98721 24.29L7.70669 22.0095Z" fill="#1C1C1C"/>
</svg>
