<svg width="32" height="32" viewBox="0 0 32 32" fill="none" xmlns="http://www.w3.org/2000/svg">
<rect width="32" height="32" rx="16" fill="#F5F5F5"/>
<path fill-rule="evenodd" clip-rule="evenodd" d="M10.5113 10.5109C8.36342 12.6588 8.36342 16.1412 10.5113 18.2891C12.4177 20.1955 15.3754 20.4098 17.5182 18.9321L21.825 23.2388L23.2392 21.8246L18.9325 17.5179C20.4102 15.3751 20.1959 12.4173 18.2895 10.5109C16.1416 8.36305 12.6592 8.36305 10.5113 10.5109ZM11.9255 16.8749C10.5587 15.5081 10.5587 13.292 11.9255 11.9252C13.2924 10.5583 15.5084 10.5583 16.8753 11.9252C18.2421 13.292 18.2421 15.5081 16.8753 16.8749C15.5084 18.2417 13.2924 18.2417 11.9255 16.8749Z" fill="#1C1C1C"/>
</svg>
