<svg width="33" height="32" viewBox="0 0 33 32" fill="none" xmlns="http://www.w3.org/2000/svg">
<path d="M17.0002 6V0H15.0002V6H17.0002Z" fill="#1C1C1C"/>
<path fill-rule="evenodd" clip-rule="evenodd" d="M10.2194 10H21.7809L23.7809 18H29.5001L32.0002 28H0.000151038L2.50015 18H8.21939L10.2194 10ZM20.2194 12L21.7194 18H10.2809L11.7809 12H20.2194ZM14.2809 20H17.7194L16.0002 26.8769L14.2809 20ZM4.0617 20H12.2194L13.7194 26H2.5617L4.0617 20ZM18.2809 26L19.7809 20H27.9386L29.4386 26H18.2809Z" fill="#1C1C1C"/>
<path d="M32.2429 4L28.0003 8.24264L26.5861 6.82843L30.8287 2.58579L32.2429 4Z" fill="#1C1C1C"/>
<path d="M0 4.00003L4.24264 8.24267L5.65685 6.82846L1.41421 2.58582L0 4.00003Z" fill="#1C1C1C"/>
</svg>
