<svg width="32" height="32" viewBox="0 0 32 32" fill="none" xmlns="http://www.w3.org/2000/svg">
<rect width="32" height="32" rx="16" fill="#F5F5F5"/>
<path d="M19.5 21C20.3284 21 21 20.3284 21 19.5C21 18.6716 20.3284 18 19.5 18C18.6716 18 18 18.6716 18 19.5C18 20.3284 18.6716 21 19.5 21Z" fill="#1C1C1C"/>
<path fill-rule="evenodd" clip-rule="evenodd" d="M13 9H19V8H21L21 9H24V24H8V9H11L11 8H13L13 9ZM11 11L11 12L13 12L13 11H19L19 12L21 12V11H22V13H10V11H11ZM10 15H22V22H10V15Z" fill="#1C1C1C"/>
</svg>
