<svg width="32" height="32" viewBox="0 0 32 32" fill="none" xmlns="http://www.w3.org/2000/svg">
<rect width="32" height="32" rx="16" fill="#F5F5F5"/>
<path fill-rule="evenodd" clip-rule="evenodd" d="M17 9.08296C19.8377 9.55904 22 12.027 22 15V18.5858L23 19.5858V22H18C18 23.1046 17.1046 24 16 24C14.8954 24 14 23.1046 14 22H9V19.5858L10 18.5858V15C10 12.027 12.1623 9.55904 15 9.08296V8H17V9.08296ZM16 11C13.7909 11 12 12.7909 12 15V19.4142L11.4142 20H20.5858L20 19.4142V15C20 12.7909 18.2091 11 16 11Z" fill="#1C1C1C"/>
</svg>
