<svg width="32" height="32" viewBox="0 0 32 32" fill="none" xmlns="http://www.w3.org/2000/svg">
<path fill-rule="evenodd" clip-rule="evenodd" d="M19.6792 21.0931C17.7717 22.6833 15.3176 23.6399 12.6401 23.6399C6.565 23.6399 1.64014 18.715 1.64014 12.6399C1.64014 6.56476 6.565 1.63989 12.6401 1.63989C18.7153 1.63989 23.6401 6.56476 23.6401 12.6399C23.6401 15.3174 22.6835 17.7714 21.0934 19.6789L30.3472 28.9327L28.933 30.347L19.6792 21.0931ZM21.6401 12.6399C21.6401 17.6105 17.6107 21.6399 12.6401 21.6399C7.66957 21.6399 3.64014 17.6105 3.64014 12.6399C3.64014 7.66933 7.66957 3.63989 12.6401 3.63989C17.6107 3.63989 21.6401 7.66933 21.6401 12.6399Z" fill="#1C1C1C"/>
</svg>
