<svg width="96" height="96" viewBox="0 0 96 96" fill="none" xmlns="http://www.w3.org/2000/svg">
<rect width="96" height="96" rx="48" fill="#F5F5F5"/>
<path d="M24 37L24 24L37 24V22H22L22 37H24Z" fill="#1C1C1C"/>
<path d="M49 37V48H45V50H51V37H49Z" fill="#1C1C1C"/>
<path d="M60 56C59.168 55.4453 59.1684 55.4446 59.1684 55.4446L59.1645 55.4503L59.1547 55.4646L59.1382 55.4879C59.113 55.5233 59.0727 55.5789 59.0171 55.6518C58.9059 55.7977 58.7344 56.0124 58.5026 56.2732C58.0384 56.7954 57.3369 57.4973 56.4 58.2C54.5292 59.6031 51.7345 61 48 61C44.2655 61 41.4709 59.6031 39.6 58.2C38.6631 57.4973 37.9617 56.7954 37.4974 56.2732C37.2657 56.0124 37.0941 55.7977 36.983 55.6518C36.9274 55.5789 36.887 55.5233 36.8619 55.4879C36.8493 55.4702 36.8405 55.4576 36.8355 55.4503L36.8316 55.4446C36.8316 55.4446 36.8321 55.4453 36 56C35.168 56.5547 35.1685 56.5555 35.1685 56.5555L35.1692 56.5565L35.1707 56.5588L35.175 56.5651L35.188 56.5841C35.1986 56.5996 35.2133 56.6207 35.2319 56.6469C35.2693 56.6994 35.3226 56.7727 35.3921 56.8639C35.5309 57.0461 35.7344 57.3001 36.0026 57.6019C36.5384 58.2047 37.3369 59.0027 38.4 59.8C40.5292 61.3969 43.7345 63 48 63C52.2655 63 55.4709 61.3969 57.6 59.8C58.6631 59.0027 59.4617 58.2047 59.9974 57.6019C60.2657 57.3001 60.4691 57.0461 60.608 56.8639C60.6774 56.7727 60.7308 56.6994 60.7681 56.6469C60.7868 56.6207 60.8014 56.5996 60.8121 56.5841L60.8251 56.5651L60.8293 56.5588L60.8315 56.5555C60.8315 56.5555 60.8321 56.5547 60 56Z" fill="#1C1C1C"/>
<path d="M72 72V59H74V74H59V72H72Z" fill="#1C1C1C"/>
<path d="M24 72H37V74H22L22 59H24L24 72Z" fill="#1C1C1C"/>
<path d="M59 24L72 24V37H74V22H59V24Z" fill="#1C1C1C"/>
<path d="M37 32H39V40H37V32Z" fill="#1C1C1C"/>
<path d="M59 32H57V40H59V32Z" fill="#1C1C1C"/>
</svg>
