<svg width="16" height="16" viewBox="0 0 16 16" fill="none" xmlns="http://www.w3.org/2000/svg">
<g clip-path="url(#clip0_32565_420)">
<path d="M8 16C12.4183 16 16 12.4183 16 8C16 3.58172 12.4183 0 8 0C3.58172 0 0 3.58172 0 8C0 12.4183 3.58172 16 8 16Z" fill="#F5F5F5"/>
<path d="M15.8593 6.5H7V0.062239C7.32756 0.0212286 7.66127 0 7.99995 0C11.9055 0 15.1571 2.79873 15.8593 6.5Z" fill="#CC3929"/>
<path d="M15.8593 9.5H7V15.9378C7.32757 15.9788 7.66128 16 7.99999 16C11.9055 16 15.1572 13.2013 15.8593 9.5Z" fill="#CC3929"/>
<path d="M3.99995 9.5V14.9295C2.02287 13.7858 0.580768 11.8203 0.140625 9.5H3.99995Z" fill="#CC3929"/>
<path d="M3.99996 6.49988H0.140625C0.580764 4.17958 2.02284 2.21405 3.99996 1.07031V6.49988Z" fill="#CC3929"/>
</g>
<defs>
<clipPath id="clip0_32565_420">
<rect width="16" height="16" fill="white"/>
</clipPath>
</defs>
</svg>
