<svg width="375" height="812" viewBox="0 0 375 812" fill="none" xmlns="http://www.w3.org/2000/svg">
<g filter="url(#filter1_dd_34_1264)">
<rect x="113" y="9" width="150" height="150" rx="42" fill="black" shape-rendering="crispEdges"/>
</g>
<path d="M188 120.879C183.125 120.879 178.555 119.965 174.289 118.137C170.023 116.309 166.273 113.777 163.039 110.543C159.828 107.309 157.309 103.57 155.48 99.3281C153.652 95.0625 152.738 90.4922 152.738 85.6172C152.738 80.7422 153.652 76.1836 155.48 71.9414C157.309 67.6758 159.828 63.9258 163.039 60.6914C166.273 57.4336 170.023 54.9023 174.289 53.0977C178.555 51.2695 183.125 50.3555 188 50.3555C192.852 50.3555 197.41 51.2695 201.676 53.0977C205.941 54.9023 209.68 57.4336 212.891 60.6914C216.125 63.9258 218.656 67.6758 220.484 71.9414C222.336 76.1836 223.262 80.7422 223.262 85.6172C223.262 90.4922 222.336 95.0625 220.484 99.3281C218.656 103.57 216.125 107.309 212.891 110.543C209.68 113.777 205.941 116.309 201.676 118.137C197.41 119.965 192.852 120.879 188 120.879ZM188 116.344C192.242 116.344 196.215 115.547 199.918 113.953C203.645 112.359 206.914 110.156 209.727 107.344C212.539 104.531 214.742 101.273 216.336 97.5703C217.93 93.8438 218.727 89.8594 218.727 85.6172C218.727 81.375 217.93 77.3906 216.336 73.6641C214.742 69.9375 212.539 66.6797 209.727 63.8906C206.914 61.0781 203.645 58.875 199.918 57.2812C196.215 55.6875 192.242 54.8906 188 54.8906C183.758 54.8906 179.773 55.6875 176.047 57.2812C172.344 58.875 169.086 61.0781 166.273 63.8906C163.461 66.6797 161.258 69.9375 159.664 73.6641C158.07 77.3906 157.273 81.375 157.273 85.6172C157.273 89.8594 158.07 93.8438 159.664 97.5703C161.258 101.273 163.461 104.531 166.273 107.344C169.086 110.156 172.344 112.359 176.047 113.953C179.773 115.547 183.758 116.344 188 116.344ZM184.168 102.281C183.723 102.281 183.312 102.188 182.938 102C182.586 101.789 182.246 101.473 181.918 101.051L172.496 89.7656C172.074 89.1797 171.863 88.6172 171.863 88.0781C171.863 87.4922 172.062 86.9883 172.461 86.5664C172.883 86.1445 173.375 85.9336 173.938 85.9336C174.336 85.9336 174.688 86.0156 174.992 86.1797C175.32 86.3203 175.637 86.5898 175.941 86.9883L184.062 97.0078L199.988 71.8359C200.504 71.0391 201.137 70.6406 201.887 70.6406C202.449 70.6406 202.953 70.8281 203.398 71.2031C203.844 71.5781 204.066 72.0586 204.066 72.6445C204.066 72.9258 203.996 73.2188 203.855 73.5234C203.738 73.8047 203.598 74.0742 203.434 74.332L186.348 101.051C185.785 101.871 185.059 102.281 184.168 102.281Z" fill="#A1F293"/>
<defs>
<filter id="filter1_dd_34_1264" x="63" y="-21" width="250" height="250" filterUnits="userSpaceOnUse" color-interpolation-filters="sRGB">
<feFlood flood-opacity="0" result="BackgroundImageFix"/>
<feColorMatrix in="SourceAlpha" type="matrix" values="0 0 0 0 0 0 0 0 0 0 0 0 0 0 0 0 0 0 127 0" result="hardAlpha"/>
<feOffset dy="20"/>
<feGaussianBlur stdDeviation="25"/>
<feComposite in2="hardAlpha" operator="out"/>
<feColorMatrix type="matrix" values="0 0 0 0 0 0 0 0 0 0 0 0 0 0 0 0 0 0 0.3 0"/>
<feBlend mode="normal" in2="BackgroundImageFix" result="effect1_dropShadow_34_1264"/>
<feColorMatrix in="SourceAlpha" type="matrix" values="0 0 0 0 0 0 0 0 0 0 0 0 0 0 0 0 0 0 127 0" result="hardAlpha"/>
<feMorphology radius="1.5" operator="dilate" in="SourceAlpha" result="effect2_dropShadow_34_1264"/>
<feOffset/>
<feComposite in2="hardAlpha" operator="out"/>
<feColorMatrix type="matrix" values="0 0 0 0 0.14902 0 0 0 0 0.14902 0 0 0 0 0.14902 0 0 0 1 0"/>
<feBlend mode="lighten" in2="effect1_dropShadow_34_1264" result="effect2_dropShadow_34_1264"/>
<feBlend mode="normal" in="SourceGraphic" in2="effect2_dropShadow_34_1264" result="shape"/>
</filter>
</defs>
</svg>
