<svg width="16" height="16" viewBox="0 0 16 16" fill="none" xmlns="http://www.w3.org/2000/svg">
<path fill-rule="evenodd" clip-rule="evenodd" d="M8 16C12.4183 16 16 12.4183 16 8C16 3.58172 12.4183 0 8 0C3.58172 0 0 3.58172 0 8C0 12.4183 3.58172 16 8 16ZM5.29049 13.2861C5.30054 13.3142 5.3107 13.3422 5.32098 13.3702C3.6374 12.5286 2.40486 10.9187 2.08296 9H4.52409C4.60321 10.6299 4.87415 12.1203 5.29049 13.2861ZM6.52668 9C6.60403 10.4345 6.84402 11.6895 7.17397 12.6134C7.37785 13.1843 7.5973 13.5754 7.79094 13.8048C7.89634 13.9296 7.96681 13.9768 8 13.9937C8.03319 13.9768 8.10366 13.9296 8.20906 13.8048C8.4027 13.5754 8.62215 13.1843 8.82603 12.6134C9.15598 11.6895 9.39597 10.4345 9.47332 9H6.52668ZM9.47332 7H6.52668C6.60403 5.56547 6.84402 4.31047 7.17397 3.38659C7.37785 2.81573 7.5973 2.42458 7.79094 2.19525C7.89634 2.07042 7.96681 2.02321 8 2.00633C8.03319 2.02321 8.10366 2.07042 8.20906 2.19525C8.4027 2.42458 8.62215 2.81573 8.82603 3.38659C9.15598 4.31047 9.39597 5.56547 9.47332 7ZM11.4759 9C11.3968 10.6299 11.1259 12.1203 10.7095 13.2861C10.6995 13.3142 10.6893 13.3422 10.679 13.3702C12.3626 12.5286 13.5951 10.9187 13.917 9H11.4759ZM13.917 7H11.4759C11.3968 5.37008 11.1259 3.87968 10.7095 2.71392C10.6995 2.68579 10.6893 2.65776 10.679 2.62984C12.3626 3.47136 13.5951 5.08128 13.917 7ZM4.52409 7H2.08296C2.40486 5.08128 3.6374 3.47136 5.32098 2.62984C5.3107 2.65776 5.30054 2.68579 5.29049 2.71392C4.87415 3.87968 4.60321 5.37008 4.52409 7Z" fill="#1C1C1C"/>
</svg>
