<svg width="89" height="89" viewBox="0 0 89 89" fill="none" xmlns="http://www.w3.org/2000/svg">
<circle cx="44.4717" cy="44" r="44" fill="#E5FDFC"/>
<path d="M40.669 50.0642L30.769 48.4142V59.9642L40.669 64.9142V50.0642Z" fill="#009087" stroke="#009087" stroke-width="4.47149"/>
<path d="M55.5193 61.2272L36.9117 50.0623H25.8193V30.2623H36.9117L55.5193 19.0974V61.2272ZM68.7773 53.5621L66.4441 55.8953L61.7777 51.2289L64.1109 48.8957L68.7773 53.5621ZM68.7193 38.5123V41.8123H62.1193V38.5123H68.7193ZM68.7773 26.7625L64.1109 31.4289L61.7777 29.0957L66.4441 24.4293L68.7773 26.7625Z" fill="#00F0E1"/>
<path d="M68.7774 53.5631L66.4442 55.8963L61.7778 51.2299L64.111 48.8967L68.7774 53.5631ZM68.7194 38.5133V41.8133H62.1194V38.5133H68.7194ZM68.7774 26.7635L64.111 31.4299L61.7778 29.0967L66.4442 24.4303L68.7774 26.7635Z" fill="#009087"/>
</svg>
