<svg width="16" height="16" viewBox="0 0 16 16" fill="none" xmlns="http://www.w3.org/2000/svg">
<g clip-path="url(#clip0_32565_451)">
<path d="M8 16C12.4183 16 16 12.4183 16 8C16 3.58172 12.4183 0 8 0C3.58172 0 0 3.58172 0 8C0 12.4183 3.58172 16 8 16Z" fill="#F5F5F5"/>
<path d="M0.275391 10.0869C0.738266 11.8044 1.75842 13.2929 3.13023 14.347V10.0869H0.275391Z" fill="#CC3929"/>
<path d="M7.30469 15.9695C7.534 15.9893 7.76591 15.9999 8.00034 15.9999C11.6966 15.9999 14.8068 13.493 15.7248 10.0869H7.30469V15.9695Z" fill="#CC3929"/>
<path d="M15.7248 5.91303C14.8068 2.50691 11.6966 0 8.00034 0C7.76591 0 7.534 0.0106875 7.30469 0.0304375V5.91303H15.7248Z" fill="#CC3929"/>
<path d="M3.13023 1.65332C1.75842 2.70738 0.738266 4.19591 0.275391 5.91338H3.13023V1.65332Z" fill="#CC3929"/>
<path d="M15.9323 6.9568H6.26091H6.26088V0.19043C5.52156 0.354367 4.82066 0.620086 4.17391 0.972992V6.95674V6.95677H0.0677188C0.0231875 7.29837 0 7.64662 0 8.00027C0 8.35393 0.0231875 8.70218 0.0677188 9.04374H4.17387H4.17391V15.0275C4.82066 15.3804 5.52156 15.6462 6.26088 15.8101V9.04384V9.04377H15.9323C15.9768 8.70218 16 8.35393 16 8.00027C16 7.64662 15.9768 7.29837 15.9323 6.9568Z" fill="#2650BF"/>
</g>
<defs>
<clipPath id="clip0_32565_451">
<rect width="16" height="16" fill="white"/>
</clipPath>
</defs>
</svg>
