<svg preserveAspectRatio="none" width="100%" height="100%" overflow="visible" style="display: block;" viewBox="0 0 80 13" fill="none" xmlns="http://www.w3.org/2000/svg">
<g id="icon">
<g id="Union">
<path d="M18.1333 0.38678C18.7224 0.38678 19.2 0.899963 19.2 1.53301V11.467C19.2 12.1 18.7224 12.6132 18.1333 12.6132H17.0667C16.4776 12.6132 16 12.1 16 11.467V1.53301C16 0.899963 16.4776 0.38678 17.0667 0.38678H18.1333Z" fill="var(--fill-0, #1C1C1C)"/>
<path d="M12.8326 2.83206H11.7659C11.1768 2.83206 10.6992 3.35756 10.6992 4.0058V11.4395C10.6992 12.0877 11.1768 12.6132 11.7659 12.6132H12.8326C13.4217 12.6132 13.8992 12.0877 13.8992 11.4395V4.0058C13.8992 3.35756 13.4217 2.83206 12.8326 2.83206Z" fill="var(--fill-0, #1C1C1C)"/>
<path d="M6.36745 5.48111H7.43411C8.02322 5.48111 8.50078 6.0133 8.50078 6.66979V11.4245C8.50078 12.081 8.02322 12.6132 7.43411 12.6132H6.36745C5.77834 12.6132 5.30078 12.081 5.30078 11.4245V6.66979C5.30078 6.0133 5.77834 5.48111 6.36745 5.48111Z" fill="var(--fill-0, #1C1C1C)"/>
<path d="M1.06667 7.9264H2.13333C2.72244 7.9264 3.2 8.45099 3.2 9.0981V11.4415C3.2 12.0886 2.72244 12.6132 2.13333 12.6132H1.06667C0.477563 12.6132 0 12.0886 0 11.4415V9.0981C0 8.45099 0.477563 7.9264 1.06667 7.9264Z" fill="var(--fill-0, #1C1C1C)"/>
</g>
<g id="Frame 1430105753">
<g id="Union_2">
<path d="M35.7713 2.80213C38.2584 2.80223 40.6504 3.72432 42.4529 5.3778C42.5887 5.50545 42.8056 5.50384 42.9393 5.37419L44.2368 4.11072C44.3045 4.04496 44.3422 3.95588 44.3417 3.8632C44.3411 3.77052 44.3023 3.68188 44.2338 3.61688C39.5028 -0.757832 32.0391 -0.757832 27.3081 3.61688C27.2395 3.68183 27.2006 3.77045 27.2 3.86313C27.1994 3.95581 27.237 4.04491 27.3047 4.11072L28.6026 5.37419C28.7362 5.50404 28.9533 5.50565 29.0889 5.3778C30.8917 3.72421 33.2839 2.80212 35.7713 2.80213Z" fill="var(--fill-0, #1C1C1C)"/>
<path d="M35.7679 7.0224C37.1253 7.02232 38.4341 7.53406 39.4403 8.45819C39.5764 8.58934 39.7907 8.5865 39.9234 8.45178L41.2107 7.13247C41.2784 7.06327 41.3161 6.96939 41.3151 6.87184C41.3141 6.77429 41.2746 6.68121 41.2054 6.61342C38.1416 3.72257 33.3969 3.72257 30.333 6.61342C30.2638 6.68121 30.2244 6.77434 30.2234 6.87192C30.2225 6.9695 30.2603 7.06337 30.3282 7.13247L31.6151 8.45178C31.7478 8.5865 31.9621 8.58934 32.0982 8.45819C33.1037 7.53467 34.4115 7.02297 35.7679 7.0224Z" fill="var(--fill-0, #1C1C1C)"/>
<path d="M38.2924 9.81596C38.2943 9.92131 38.2572 10.0229 38.1899 10.0967L36.0133 12.5514C35.9495 12.6236 35.8625 12.6642 35.7717 12.6642C35.6809 12.6642 35.5939 12.6236 35.5301 12.5514L33.3531 10.0967C33.2859 10.0228 33.2489 9.92122 33.2509 9.81587C33.2528 9.71052 33.2937 9.61076 33.3636 9.54014C34.7537 8.22625 36.7897 8.22625 38.1798 9.54014C38.2497 9.61081 38.2904 9.71061 38.2924 9.81596Z" fill="var(--fill-0, #1C1C1C)"/>
</g>
</g>
<g id="Frame 1430105752">
<g id="Union_3" opacity="0.4">
<path fill-rule="evenodd" clip-rule="evenodd" d="M52.3417 6.5C52.3417 4.4495 52.3417 3.42425 52.6842 2.61825C53.1196 1.59368 53.9354 0.777905 54.9599 0.342511C55.7659 0 56.7912 0 58.8417 0H70.8417C72.8922 0 73.9174 0 74.7234 0.342511C75.748 0.777905 76.5638 1.59368 76.9992 2.61825C77.3417 3.42425 77.3417 4.4495 77.3417 6.5C77.3417 8.5505 77.3417 9.57575 76.9992 10.3818C76.5638 11.4063 75.748 12.2221 74.7234 12.6575C73.9174 13 72.8922 13 70.8417 13H58.8417C56.7912 13 55.7659 13 54.9599 12.6575C53.9354 12.2221 53.1196 11.4063 52.6842 10.3818C52.3417 9.57575 52.3417 8.5505 52.3417 6.5ZM58.8417 1H70.8417C71.8809 1 72.6091 1.00057 73.1796 1.04039C73.7408 1.07956 74.0742 1.15318 74.3323 1.26286C75.1186 1.597 75.7447 2.22306 76.0788 3.00935C76.1885 3.26745 76.2621 3.60086 76.3013 4.16207C76.3411 4.73255 76.3417 5.46074 76.3417 6.5C76.3417 7.53926 76.3411 8.26745 76.3013 8.83793C76.2621 9.39914 76.1885 9.73255 76.0788 9.99065C75.7447 10.7769 75.1186 11.403 74.3323 11.7371C74.0742 11.8468 73.7408 11.9204 73.1796 11.9596C72.6091 11.9994 71.8809 12 70.8417 12H58.8417C57.8024 12 57.0742 11.9994 56.5037 11.9596C55.9425 11.9204 55.6091 11.8468 55.351 11.7371C54.5647 11.403 53.9387 10.7769 53.6045 9.99065C53.4948 9.73255 53.4212 9.39914 53.3821 8.83793C53.3422 8.26745 53.3417 7.53926 53.3417 6.5C53.3417 5.46074 53.3422 4.73255 53.3821 4.16207C53.4212 3.60086 53.4948 3.26745 53.6045 3.00935C53.9387 2.22306 54.5647 1.597 55.351 1.26286C55.6091 1.15318 55.9425 1.07956 56.5037 1.04039C57.0742 1.00057 57.8024 1 58.8417 1Z" fill="var(--fill-0, #1C1C1C)"/>
<path d="M79.6697 6.81886C79.6697 7.70847 79.1464 8.51143 78.3417 8.8566V4.78113C79.1464 5.1263 79.6697 5.92926 79.6697 6.81886Z" fill="var(--fill-0, #1C1C1C)"/>
</g>
<path id="Union_4" d="M54.6697 6C54.6697 4.59987 54.6697 3.8998 54.9422 3.36502C55.1818 2.89462 55.5643 2.51217 56.0347 2.27248C56.5695 2 57.2695 2 58.6697 2H71.6697C73.0698 2 73.7699 2 74.3046 2.27248C74.775 2.51217 75.1575 2.89462 75.3972 3.36502C75.6697 3.8998 75.6697 4.59987 75.6697 6V7C75.6697 8.40013 75.6697 9.1002 75.3972 9.63498C75.1575 10.1054 74.775 10.4878 74.3046 10.7275C73.7699 11 73.0698 11 71.6697 11H58.6697C57.2695 11 56.5695 11 56.0347 10.7275C55.5643 10.4878 55.1818 10.1054 54.9422 9.63498C54.6697 9.1002 54.6697 8.40013 54.6697 7V6Z" fill="var(--fill-0, #1C1C1C)"/>
</g>
</g>
</svg>
