<svg preserveAspectRatio="none" width="100%" height="100%" overflow="visible" style="display: block;" viewBox="0 0 52 52" fill="none" xmlns="http://www.w3.org/2000/svg">
<g id="Frame 16456">
<g id="Rectangle 285">
<rect width="29.5948" height="19.0394" rx="3.32482" transform="matrix(0.939781 -0.341778 0.314532 0.949247 5.77777 13.0037)" fill="var(--fill-0, #D9D9D9)"/>
<rect width="29.5948" height="19.0394" rx="3.32482" transform="matrix(0.939781 -0.341778 0.314532 0.949247 5.77777 13.0037)" fill="var(--fill-1, #4400FF)"/>
<rect width="29.5948" height="19.0394" rx="3.32482" transform="matrix(0.939781 -0.341778 0.314532 0.949247 5.77777 13.0037)" fill="url(#paint0_linear_14_6081)" fill-opacity="0.7"/>
</g>
<g id="Rectangle 284">
<rect x="0.967907" y="0.652101" width="31.3624" height="19.8098" rx="2.49362" transform="matrix(0.980133 -0.198341 0.184328 0.982865 9.83285 14.6294)" fill="var(--fill-0, #D9D9D9)"/>
<rect x="0.967907" y="0.652101" width="31.3624" height="19.8098" rx="2.49362" transform="matrix(0.980133 -0.198341 0.184328 0.982865 9.83285 14.6294)" fill="var(--fill-1, #A666FF)"/>
<rect x="0.967907" y="0.652101" width="31.3624" height="19.8098" rx="2.49362" transform="matrix(0.980133 -0.198341 0.184328 0.982865 9.83285 14.6294)" fill="url(#paint1_linear_14_6081)" fill-opacity="0.4"/>
<rect x="0.967907" y="0.652101" width="31.3624" height="19.8098" rx="2.49362" transform="matrix(0.980133 -0.198341 0.184328 0.982865 9.83285 14.6294)" stroke="var(--stroke-0, white)" stroke-width="1.66241"/>
</g>
<g id="Rectangle 282">
<rect x="7.94444" y="20.2222" width="36.8333" height="27.4444" rx="3.05173" fill="var(--fill-0, #D9D9D9)"/>
<rect x="7.94444" y="20.2222" width="36.8333" height="27.4444" rx="3.05173" fill="url(#paint2_linear_14_6081)"/>
<rect x="7.94444" y="20.2222" width="36.8333" height="27.4444" rx="3.05173" fill="url(#paint3_linear_14_6081)"/>
</g>
<g id="Rectangle 283">
<rect x="32.408" y="29.2277" width="15.2587" height="9.91814" rx="3.05173" fill="var(--fill-0, #D9D9D9)"/>
<rect x="32.408" y="29.2277" width="15.2587" height="9.91814" rx="3.05173" fill="url(#paint4_linear_14_6081)"/>
<rect x="32.408" y="29.2277" width="15.2587" height="9.91814" rx="3.05173" fill="var(--fill-2, #03B4A9)"/>
<rect x="32.408" y="29.2277" width="15.2587" height="9.91814" rx="3.05173" fill="url(#paint5_linear_14_6081)"/>
</g>
<g id="Ellipse 19">
<circle cx="36.9855" cy="34.1867" r="2.2888" fill="var(--fill-0, #D9D9D9)"/>
<circle cx="36.9855" cy="34.1867" r="2.2888" fill="url(#paint6_linear_14_6081)"/>
<circle cx="36.9855" cy="34.1867" r="2.2888" fill="url(#paint7_linear_14_6081)"/>
</g>
<path id="Vector 54" d="M44.6149 43.7232L34.6967 39.1456H44.6149V43.7232Z" fill="var(--fill-0, #0FC4B9)" fill-opacity="0.5"/>
</g>
<defs>
<linearGradient id="paint0_linear_14_6081" x1="18.333" y1="2.57141" x2="15.9561" y2="19.4256" gradientUnits="userSpaceOnUse">
<stop stop-color="#4400FF" stop-opacity="0"/>
<stop offset="1" stop-color="#4400FF"/>
</linearGradient>
<linearGradient id="paint1_linear_14_6081" x1="26.9314" y1="15.1732" x2="7.82356" y2="12.7176" gradientUnits="userSpaceOnUse">
<stop stop-color="#4400FF" stop-opacity="0"/>
<stop offset="1" stop-color="#4400FF"/>
</linearGradient>
<linearGradient id="paint2_linear_14_6081" x1="47.1327" y1="42.8847" x2="29.6646" y2="8.00638" gradientUnits="userSpaceOnUse">
<stop stop-color="#00F0E1"/>
<stop offset="1" stop-color="#D2FFFF"/>
</linearGradient>
<linearGradient id="paint3_linear_14_6081" x1="35.7836" y1="34.6667" x2="13.4053" y2="24.6029" gradientUnits="userSpaceOnUse">
<stop stop-color="#0FC4B9" stop-opacity="0.4"/>
<stop offset="1" stop-color="#0FC4B9" stop-opacity="0"/>
</linearGradient>
<linearGradient id="paint4_linear_14_6081" x1="48.6422" y1="37.4177" x2="42.858" y2="24.1786" gradientUnits="userSpaceOnUse">
<stop stop-color="#00F0E1"/>
<stop offset="1" stop-color="#D2FFFF"/>
</linearGradient>
<linearGradient id="paint5_linear_14_6081" x1="43.9407" y1="34.4478" x2="35.1354" y2="29.9086" gradientUnits="userSpaceOnUse">
<stop stop-color="#06A59B"/>
<stop offset="1" stop-color="#0FC4B9" stop-opacity="0"/>
</linearGradient>
<linearGradient id="paint6_linear_14_6081" x1="39.567" y1="35.6779" x2="36.198" y2="30.6657" gradientUnits="userSpaceOnUse">
<stop stop-color="#00F0E1"/>
<stop offset="1" stop-color="#D2FFFF"/>
</linearGradient>
<linearGradient id="paint7_linear_14_6081" x1="38.1566" y1="34.3072" x2="35.1505" y2="33.2999" gradientUnits="userSpaceOnUse">
<stop stop-color="#0FC4B9" stop-opacity="0.3"/>
<stop offset="1" stop-color="#0FC4B9" stop-opacity="0"/>
</linearGradient>
</defs>
</svg>
