<svg width="64" height="64" viewBox="0 0 64 64" fill="none" xmlns="http://www.w3.org/2000/svg">
<path d="M8 21L8 8L21 8V6H6L6 21H8Z" fill="#1C1C1C"/>
<path d="M33 21V32H29V34H35V21H33Z" fill="#1C1C1C"/>
<path d="M44 40C43.168 39.4453 43.1684 39.4446 43.1684 39.4446L43.1645 39.4503L43.1547 39.4646L43.1382 39.4879C43.113 39.5233 43.0727 39.5789 43.0171 39.6518C42.9059 39.7977 42.7344 40.0124 42.5026 40.2732C42.0384 40.7954 41.3369 41.4973 40.4 42.2C38.5292 43.6031 35.7345 45 32 45C28.2655 45 25.4709 43.6031 23.6 42.2C22.6631 41.4973 21.9617 40.7954 21.4974 40.2732C21.2657 40.0124 21.0941 39.7977 20.983 39.6518C20.9274 39.5789 20.887 39.5233 20.8619 39.4879C20.8493 39.4702 20.8405 39.4576 20.8355 39.4503L20.8316 39.4446C20.8316 39.4446 20.8321 39.4453 20 40C19.168 40.5547 19.1685 40.5555 19.1685 40.5555L19.1692 40.5565L19.1707 40.5588L19.175 40.5651L19.188 40.5841C19.1986 40.5996 19.2133 40.6207 19.2319 40.6469C19.2693 40.6994 19.3226 40.7727 19.3921 40.8639C19.5309 41.0461 19.7344 41.3001 20.0026 41.6019C20.5384 42.2047 21.3369 43.0027 22.4 43.8C24.5292 45.3969 27.7345 47 32 47C36.2655 47 39.4709 45.3969 41.6 43.8C42.6631 43.0027 43.4617 42.2047 43.9974 41.6019C44.2657 41.3001 44.4691 41.0461 44.608 40.8639C44.6774 40.7727 44.7308 40.6994 44.7681 40.6469C44.7868 40.6207 44.8014 40.5996 44.8121 40.5841L44.8251 40.5651L44.8293 40.5588L44.8315 40.5555C44.8315 40.5555 44.8321 40.5547 44 40Z" fill="#1C1C1C"/>
<path d="M56 56V43H58V58H43V56H56Z" fill="#1C1C1C"/>
<path d="M8 56H21V58H6L6 43H8L8 56Z" fill="#1C1C1C"/>
<path d="M43 8L56 8V21H58V6H43V8Z" fill="#1C1C1C"/>
<path d="M21 16H23V24H21V16Z" fill="#1C1C1C"/>
<path d="M43 16H41V24H43V16Z" fill="#1C1C1C"/>
</svg>
