<svg width="24" height="24" viewBox="0 0 24 24" fill="none" xmlns="http://www.w3.org/2000/svg">
<path fill-rule="evenodd" clip-rule="evenodd" d="M3 1C1.89543 1 1 1.89543 1 3V9C1 10.1046 1.89543 11 3 11H9C10.1046 11 11 10.1046 11 9V3C11 1.89543 10.1046 1 9 1H3ZM3 3H9V9H3V3Z" fill="#9E9E9E"/>
<path fill-rule="evenodd" clip-rule="evenodd" d="M3 13C1.89543 13 1 13.8954 1 15V21C1 22.1046 1.89543 23 3 23H9C10.1046 23 11 22.1046 11 21V15C11 13.8954 10.1046 13 9 13H3ZM3 15H9V21H3V15Z" fill="#9E9E9E"/>
<path fill-rule="evenodd" clip-rule="evenodd" d="M13 3C13 1.89543 13.8954 1 15 1H21C22.1046 1 23 1.89543 23 3V9C23 10.1046 22.1046 11 21 11H15C13.8954 11 13 10.1046 13 9V3ZM21 3H15V9H21V3Z" fill="#9E9E9E"/>
<path fill-rule="evenodd" clip-rule="evenodd" d="M15 13C13.8954 13 13 13.8954 13 15V21C13 22.1046 13.8954 23 15 23H21C22.1046 23 23 22.1046 23 21V15C23 13.8954 22.1046 13 21 13H15ZM15 15H21V21H15V15Z" fill="#9E9E9E"/>
</svg>
